<svg aria-hidden="true" style="position: absolute; width: 0; height: 0; overflow: hidden;" version="1.1" xmlns="http://www.w3.org/2000/svg" xmlns:xlink="http://www.w3.org/1999/xlink">
<defs>
<symbol id="icon-Letter" viewBox="0 0 37 32">
<path d="M5.491 24.283c-0.137 0-0.268-0.054-0.365-0.151s-0.151-0.228-0.151-0.365v-18.984c0.023-1.261 0.543-2.463 1.445-3.344s2.117-1.371 3.378-1.364h22.018c0.137 0 0.268 0.054 0.365 0.151s0.151 0.228 0.151 0.365-0.054 0.268-0.151 0.365c-0.097 0.097-0.228 0.151-0.365 0.151h-22.018c-0.99-0.006-1.942 0.377-2.652 1.067s-1.119 1.632-1.14 2.621v18.971c0 0.137-0.054 0.268-0.151 0.365s-0.228 0.151-0.365 0.151z"></path>
<path d="M30.731 9.727h-3.222c-0.137 0-0.268-0.054-0.365-0.151s-0.151-0.228-0.151-0.365 0.054-0.268 0.151-0.365c0.097-0.097 0.228-0.151 0.365-0.151h2.106c-0.198-0.378-0.314-0.794-0.341-1.22s0.037-0.853 0.186-1.253h-1.951c-0.137 0-0.268-0.054-0.365-0.151s-0.151-0.228-0.151-0.365 0.054-0.268 0.151-0.365c0.097-0.097 0.228-0.151 0.365-0.151h2.767c0.093-0 0.185 0.025 0.265 0.073s0.146 0.117 0.19 0.199 0.065 0.175 0.061 0.268c-0.004 0.093-0.034 0.183-0.085 0.261-0.11 0.169-1.046 1.701 0.347 2.818 0.083 0.067 0.144 0.158 0.173 0.261s0.026 0.212-0.009 0.313-0.101 0.188-0.189 0.25c-0.087 0.062-0.191 0.095-0.298 0.095z"></path>
<path d="M27.51 28.201c-0.137 0-0.268-0.054-0.365-0.151s-0.151-0.228-0.151-0.365v-22.902c0-0.137 0.054-0.268 0.151-0.365s0.228-0.151 0.365-0.151 0.268 0.054 0.365 0.151c0.097 0.097 0.151 0.228 0.151 0.365v22.902c0 0.137-0.054 0.268-0.151 0.365s-0.228 0.151-0.365 0.151z"></path>
<path d="M4.436 31.925c-0.849-0-1.67-0.3-2.319-0.846-0.103-0.089-0.203-0.178-0.296-0.271-0.58-0.579-0.989-1.307-1.183-2.103s-0.163-1.631 0.087-2.411c0.25-0.78 0.711-1.477 1.332-2.012s1.377-0.889 2.185-1.023c0.028-0.005 0.056-0.007 0.084-0.007h19.689c0.13-0 0.255 0.049 0.35 0.136s0.154 0.209 0.165 0.338c0.011 0.129-0.028 0.258-0.108 0.36s-0.195 0.171-0.323 0.191c-0.621 0.103-1.201 0.375-1.678 0.787s-0.83 0.946-1.022 1.546c-0.192 0.599-0.215 1.24-0.067 1.852s0.463 1.171 0.908 1.615c0.073 0.073 0.149 0.142 0.227 0.206 0.445 0.375 1.003 0.589 1.585 0.608h0.096c0.404-0.005 0.802-0.098 1.166-0.273 0.501-0.229 0.926-0.597 1.224-1.060s0.456-1.003 0.456-1.553c0-0.137 0.054-0.268 0.151-0.365s0.228-0.151 0.365-0.151 0.268 0.054 0.365 0.151c0.097 0.097 0.151 0.228 0.151 0.365 0.001 0.747-0.212 1.479-0.614 2.108s-0.978 1.129-1.657 1.441c-0.494 0.234-1.033 0.359-1.579 0.366-0.020 0.002-0.039 0.003-0.059 0.004h-19.633c-0.016 0.002-0.032 0.002-0.049 0.002zM4.369 24.283c-0.616 0.11-1.191 0.387-1.661 0.801s-0.818 0.949-1.005 1.546c-0.187 0.598-0.207 1.235-0.058 1.843s0.463 1.163 0.907 1.606c0.073 0.073 0.152 0.143 0.23 0.21 0.452 0.379 1.020 0.592 1.609 0.604h17.205c-0.029-0.028-0.058-0.056-0.086-0.084-0.835-0.836-1.304-1.969-1.305-3.15s0.468-2.315 1.301-3.152c0.077-0.077 0.155-0.151 0.237-0.221l-17.375-0.002z"></path>
<path d="M31.817 9.727h-0.952c-0.137 0-0.268-0.054-0.365-0.151s-0.151-0.228-0.151-0.365 0.054-0.268 0.151-0.365c0.097-0.097 0.228-0.151 0.365-0.151h0.951c0.746 0 1.475-0.219 2.097-0.631s1.108-0.998 1.399-1.685c0.291-0.687 0.372-1.444 0.234-2.178s-0.488-1.409-1.008-1.944c-0.52-0.535-1.186-0.905-1.915-1.063s-1.488-0.098-2.183 0.173c-0.695 0.271-1.295 0.741-1.724 1.351s-0.669 1.333-0.69 2.079c-0.001 0.068-0.015 0.135-0.042 0.198s-0.067 0.119-0.116 0.166-0.107 0.083-0.171 0.108c-0.064 0.024-0.131 0.035-0.199 0.032s-0.135-0.017-0.197-0.044-0.118-0.067-0.165-0.116c-0.047-0.049-0.083-0.107-0.108-0.17s-0.036-0.131-0.034-0.199c0.025-0.949 0.33-1.869 0.875-2.646s1.308-1.376 2.192-1.721 1.851-0.423 2.778-0.222c0.928 0.201 1.776 0.671 2.438 1.351s1.109 1.541 1.285 2.474 0.072 1.897-0.297 2.771c-0.369 0.875-0.988 1.621-1.78 2.145s-1.72 0.804-2.669 0.804l-0.001 0.002z"></path>
<path d="M24.535 5.591h-15.522c-0.137 0-0.268-0.054-0.365-0.151s-0.151-0.228-0.151-0.365c0-0.137 0.054-0.268 0.151-0.365s0.228-0.151 0.365-0.151h15.522c0.137 0 0.268 0.054 0.365 0.151s0.151 0.228 0.151 0.365-0.054 0.268-0.151 0.365c-0.097 0.097-0.228 0.151-0.365 0.151z"></path>
<path d="M24.535 10.25h-4.148c-0.137 0-0.268-0.054-0.365-0.151s-0.151-0.228-0.151-0.365 0.054-0.268 0.151-0.365c0.097-0.097 0.228-0.151 0.365-0.151h4.148c0.137 0 0.268 0.054 0.365 0.151s0.151 0.228 0.151 0.365-0.054 0.268-0.151 0.365c-0.097 0.097-0.228 0.151-0.365 0.151z"></path>
<path d="M10.194 10.25h-1.181c-0.137 0-0.268-0.054-0.365-0.151s-0.151-0.228-0.151-0.365c0-0.137 0.054-0.268 0.151-0.365s0.228-0.151 0.365-0.151h1.181c0.137 0 0.268 0.054 0.365 0.151s0.151 0.228 0.151 0.365-0.054 0.268-0.151 0.365c-0.097 0.097-0.228 0.151-0.365 0.151z"></path>
<path d="M24.535 14.908h-3.932c-0.137 0-0.268-0.054-0.365-0.151s-0.151-0.228-0.151-0.365 0.054-0.268 0.151-0.365c0.097-0.097 0.228-0.151 0.365-0.151h3.932c0.137 0 0.268 0.054 0.365 0.151s0.151 0.228 0.151 0.365-0.054 0.268-0.151 0.365c-0.097 0.097-0.228 0.151-0.365 0.151z"></path>
<path d="M9.603 14.908h-0.59c-0.137 0-0.268-0.054-0.365-0.151s-0.151-0.228-0.151-0.365 0.054-0.268 0.151-0.365c0.097-0.097 0.228-0.151 0.365-0.151h0.59c0.137 0 0.268 0.054 0.365 0.151s0.151 0.228 0.151 0.365-0.054 0.268-0.151 0.365c-0.097 0.097-0.228 0.151-0.365 0.151z"></path>
<path d="M24.535 19.566h-0.556c-0.137 0-0.268-0.054-0.365-0.151s-0.151-0.228-0.151-0.365 0.054-0.268 0.151-0.365c0.097-0.097 0.228-0.151 0.365-0.151h0.556c0.137 0 0.268 0.054 0.365 0.151s0.151 0.228 0.151 0.365-0.054 0.268-0.151 0.365c-0.097 0.097-0.228 0.151-0.365 0.151z"></path>
<path d="M15.978 19.566h-6.968c-0.137 0-0.268-0.054-0.365-0.151s-0.151-0.228-0.151-0.365 0.054-0.268 0.151-0.365c0.097-0.097 0.228-0.151 0.365-0.151h6.968c0.137 0 0.268 0.054 0.365 0.151s0.151 0.228 0.151 0.365-0.054 0.268-0.151 0.365c-0.097 0.097-0.228 0.151-0.365 0.151z"></path>
<path d="M14.94 17.497c-0.705 0-1.4-0.174-2.021-0.506s-1.152-0.813-1.544-1.4c-0.392-0.586-0.633-1.26-0.702-1.962s0.036-1.41 0.306-2.061c0.27-0.652 0.696-1.226 1.242-1.674s1.192-0.753 1.884-0.891c0.692-0.137 1.407-0.102 2.081 0.103s1.289 0.573 1.787 1.072c0.6 0.6 1.009 1.364 1.174 2.195s0.081 1.694-0.244 2.478c-0.325 0.784-0.875 1.453-1.58 1.924s-1.535 0.722-2.383 0.722zM14.94 9.954c-0.753 0-1.484 0.261-2.066 0.739s-0.981 1.143-1.128 1.882c-0.147 0.739-0.033 1.506 0.322 2.171s0.93 1.185 1.626 1.474c0.696 0.288 1.471 0.326 2.192 0.108s1.344-0.681 1.762-1.307c0.419-0.626 0.607-1.379 0.533-2.129s-0.405-1.451-0.938-1.984c-0.302-0.304-0.66-0.544-1.056-0.708s-0.819-0.248-1.247-0.247v0.002z"></path>
<path d="M13.927 13.724c-0.338 0-0.666-0.117-0.928-0.332s-0.44-0.513-0.507-0.845c-0.066-0.332-0.015-0.676 0.145-0.974s0.417-0.532 0.73-0.661c0.312-0.129 0.66-0.146 0.984-0.048s0.603 0.306 0.791 0.587c0.188 0.281 0.272 0.619 0.239 0.956s-0.182 0.651-0.422 0.89c-0.136 0.136-0.296 0.243-0.474 0.316s-0.367 0.111-0.559 0.111zM13.927 11.832c-0.1-0-0.196 0.034-0.273 0.098s-0.13 0.151-0.149 0.249c-0.019 0.098-0.004 0.199 0.043 0.287s0.123 0.157 0.215 0.195c0.092 0.038 0.194 0.043 0.29 0.014s0.178-0.090 0.233-0.173 0.080-0.182 0.070-0.281c-0.010-0.099-0.054-0.192-0.124-0.262-0.040-0.040-0.087-0.072-0.139-0.093s-0.108-0.033-0.165-0.033z"></path>
<path d="M20.597 21.164c-0.137 0-0.268-0.054-0.365-0.151l-4.019-4.019c-0.049-0.048-0.089-0.105-0.116-0.168s-0.041-0.131-0.042-0.199c-0.001-0.069 0.012-0.136 0.038-0.2s0.064-0.121 0.113-0.169c0.048-0.048 0.106-0.087 0.169-0.113s0.131-0.039 0.2-0.038 0.136 0.015 0.199 0.042c0.063 0.027 0.12 0.066 0.168 0.116l3.857 3.855 0.995-0.057 0.058-0.997-0.084-0.084-0.844-0.096c-0.116-0.013-0.224-0.065-0.307-0.148s-0.135-0.191-0.148-0.307l-0.070-0.615-0.614-0.070c-0.116-0.013-0.224-0.065-0.307-0.148s-0.135-0.191-0.148-0.307l-0.096-0.844-1.239-1.239c-0.094-0.097-0.146-0.228-0.145-0.363s0.055-0.265 0.151-0.36 0.225-0.15 0.36-0.151c0.135-0.001 0.266 0.051 0.363 0.145l1.364 1.365c0.083 0.082 0.135 0.191 0.148 0.307l0.070 0.615 0.614 0.069c0.116 0.013 0.224 0.065 0.307 0.148s0.135 0.191 0.148 0.307l0.070 0.616 0.616 0.070c0.116 0.013 0.224 0.065 0.307 0.148l0.375 0.375c0.051 0.052 0.091 0.113 0.117 0.181s0.037 0.141 0.033 0.213l-0.098 1.686c-0.007 0.126-0.061 0.246-0.151 0.335s-0.209 0.143-0.335 0.15l-1.715 0.099z"></path>
</symbol>
<symbol id="icon-Clock" viewBox="0 0 33 32">
<path  d="M16.344 4.781c-2.267-0-4.482 0.658-6.367 1.891s-3.354 2.985-4.221 5.035-1.094 4.306-0.652 6.482c0.442 2.176 1.534 4.175 3.136 5.744s3.645 2.637 5.868 3.070c2.223 0.433 4.527 0.211 6.622-0.638s3.884-2.287 5.143-4.132c1.259-1.845 1.931-4.014 1.931-6.233-0.003-2.974-1.212-5.826-3.36-7.929s-5.061-3.286-8.1-3.29zM25.878 16.438h1.021c-0.104 2.439-1.088 4.762-2.779 6.557l-0.719-0.703c-0.041-0.041-0.091-0.073-0.145-0.095s-0.112-0.033-0.171-0.033c-0.059 0-0.117 0.011-0.171 0.033s-0.104 0.054-0.145 0.095c-0.041 0.041-0.074 0.089-0.097 0.142s-0.034 0.11-0.034 0.167c0 0.057 0.012 0.114 0.034 0.167s0.055 0.101 0.097 0.142l0.719 0.703c-1.833 1.655-4.206 2.619-6.697 2.72v-1c0-0.116-0.047-0.227-0.131-0.309s-0.197-0.128-0.316-0.128c-0.119 0-0.232 0.046-0.316 0.128s-0.131 0.193-0.131 0.309v1c-2.491-0.101-4.865-1.065-6.697-2.72l0.719-0.703c0.041-0.041 0.074-0.089 0.097-0.142s0.034-0.11 0.034-0.167c0-0.057-0.011-0.114-0.034-0.167s-0.055-0.101-0.097-0.142c-0.041-0.041-0.091-0.073-0.145-0.095s-0.112-0.033-0.171-0.033c-0.059 0-0.117 0.011-0.171 0.033s-0.104 0.054-0.145 0.095l-0.719 0.703c-1.69-1.794-2.675-4.118-2.778-6.557h1.021c0.119 0 0.232-0.046 0.316-0.128s0.131-0.193 0.131-0.309c0-0.116-0.047-0.227-0.131-0.309s-0.197-0.128-0.316-0.128h-1.021c0.103-2.439 1.088-4.762 2.778-6.556l0.719 0.703c0.084 0.082 0.197 0.128 0.316 0.128s0.232-0.046 0.316-0.128 0.131-0.193 0.131-0.309c0-0.116-0.047-0.227-0.131-0.309l-0.719-0.704c1.833-1.655 4.206-2.619 6.697-2.72v1c0 0.116 0.047 0.227 0.131 0.309s0.197 0.128 0.316 0.128c0.119 0 0.232-0.046 0.316-0.128s0.131-0.193 0.131-0.309v-1c2.491 0.101 4.865 1.065 6.697 2.72l-0.719 0.704c-0.041 0.041-0.074 0.089-0.097 0.142s-0.034 0.11-0.034 0.167c0 0.057 0.012 0.114 0.034 0.167s0.055 0.101 0.097 0.142c0.041 0.041 0.091 0.073 0.145 0.095s0.112 0.033 0.171 0.033c0.059 0 0.117-0.011 0.171-0.033s0.104-0.054 0.145-0.095l0.719-0.703c1.69 1.794 2.675 4.118 2.778 6.556h-1.021c-0.119 0-0.232 0.046-0.316 0.128s-0.131 0.193-0.131 0.309c0 0.116 0.047 0.227 0.131 0.309s0.197 0.128 0.316 0.128h0.001z"></path>
<path  d="M21.42 15.563h-2.822c-0.089-0.437-0.308-0.837-0.63-1.152s-0.731-0.529-1.177-0.617v-4.325c0-0.116-0.047-0.227-0.131-0.309s-0.197-0.128-0.316-0.128c-0.119 0-0.232 0.046-0.316 0.128s-0.131 0.193-0.131 0.309v4.325c-0.408 0.079-0.787 0.265-1.096 0.539s-0.536 0.624-0.657 1.014c-0.121 0.39-0.132 0.805-0.031 1.2s0.31 0.757 0.604 1.045 0.663 0.493 1.067 0.592c0.404 0.099 0.828 0.089 1.226-0.030s0.756-0.341 1.036-0.643c0.279-0.302 0.47-0.673 0.551-1.073h2.822c0.119 0 0.232-0.046 0.316-0.128s0.131-0.193 0.131-0.309c0-0.116-0.047-0.227-0.131-0.309s-0.197-0.128-0.316-0.128zM16.344 17.375c-0.278 0-0.549-0.081-0.78-0.232s-0.411-0.366-0.517-0.617c-0.106-0.251-0.134-0.528-0.080-0.794s0.188-0.512 0.384-0.704c0.196-0.192 0.447-0.323 0.719-0.376s0.555-0.026 0.811 0.078c0.257 0.104 0.476 0.28 0.63 0.506s0.237 0.492 0.237 0.764c-0 0.365-0.148 0.714-0.412 0.972s-0.62 0.403-0.993 0.403z"></path>
<path  d="M31.967 2.236l-1.564-1.53c-0.46-0.449-1.083-0.702-1.732-0.702s-1.272 0.252-1.732 0.702l-1.226 1.2c-0.041 0.041-0.074 0.089-0.097 0.142s-0.034 0.11-0.034 0.167c0 0.057 0.012 0.114 0.034 0.167s0.055 0.101 0.097 0.142l1.159 1.135-1.719 1.683c-2.491-1.98-5.602-3.061-8.81-3.061s-6.32 1.081-8.81 3.061l-1.719-1.683 1.159-1.135c0.042-0.041 0.074-0.089 0.097-0.142s0.034-0.11 0.034-0.167c0-0.057-0.012-0.114-0.034-0.167s-0.055-0.101-0.097-0.142l-1.226-1.2c-0.46-0.449-1.083-0.702-1.732-0.702s-1.272 0.252-1.732 0.702l-1.563 1.531c-0.459 0.45-0.717 1.060-0.717 1.696s0.258 1.246 0.717 1.696l1.226 1.2c0.041 0.041 0.091 0.073 0.145 0.095s0.112 0.033 0.171 0.033c0.059 0 0.117-0.011 0.171-0.033s0.103-0.054 0.145-0.095l1.16-1.135 1.719 1.683c-2.151 2.593-3.258 5.866-3.114 9.203s1.53 6.507 3.896 8.913l-2.202 4.839c-0.082 0.181-0.117 0.379-0.101 0.576s0.082 0.388 0.192 0.554c0.11 0.166 0.261 0.303 0.439 0.397s0.377 0.144 0.579 0.144h1.118c0.234-0 0.464-0.067 0.66-0.192s0.352-0.303 0.448-0.513l1.643-3.609c2.204 1.329 4.742 2.032 7.33 2.032s5.126-0.704 7.33-2.032l1.642 3.609c0.096 0.209 0.251 0.387 0.447 0.512s0.425 0.191 0.66 0.192h1.118c0.202 0 0.401-0.049 0.579-0.144s0.328-0.231 0.439-0.397c0.11-0.166 0.176-0.356 0.192-0.554s-0.019-0.395-0.101-0.576l-2.202-4.839c2.366-2.406 3.752-5.576 3.896-8.913s-0.964-6.61-3.114-9.203l1.719-1.683 1.16 1.135c0.041 0.041 0.091 0.073 0.145 0.095s0.112 0.033 0.171 0.033c0.059 0 0.117-0.011 0.171-0.033s0.103-0.054 0.145-0.095l1.226-1.2c0.459-0.45 0.716-1.060 0.716-1.695s-0.258-1.245-0.716-1.695zM2.262 5.9l-0.909-0.891c-0.291-0.286-0.455-0.673-0.455-1.077s0.164-0.791 0.455-1.077l1.563-1.53c0.292-0.285 0.688-0.445 1.1-0.445s0.808 0.16 1.1 0.445l0.911 0.89-3.765 3.685zM4.37 5.075l0.813-0.795 1.673 1.638c-0.282 0.254-0.553 0.519-0.813 0.796l-1.673-1.638zM6.555 30.94c-0.025 0.055-0.066 0.102-0.118 0.135s-0.112 0.050-0.174 0.050h-1.118c-0.053 0-0.106-0.013-0.152-0.038s-0.086-0.061-0.115-0.104c-0.029-0.044-0.046-0.094-0.051-0.146s0.005-0.104 0.027-0.152l2.067-4.541c0.424 0.376 0.871 0.727 1.339 1.050l-1.705 3.745zM27.811 30.983c-0.029 0.044-0.068 0.080-0.115 0.105s-0.099 0.038-0.153 0.037h-1.118c-0.062-0-0.122-0.018-0.174-0.050s-0.093-0.080-0.118-0.135l-1.704-3.745c0.468-0.323 0.915-0.674 1.339-1.050l2.067 4.54c0.022 0.048 0.031 0.1 0.026 0.152s-0.022 0.102-0.052 0.146h0.001zM16.344 28.844c-2.595 0-5.132-0.753-7.289-2.165s-3.839-3.417-4.832-5.764c-0.993-2.347-1.253-4.929-0.747-7.421s1.756-4.78 3.591-6.576c1.835-1.796 4.173-3.020 6.718-3.515s5.183-0.241 7.581 0.731c2.397 0.972 4.446 2.618 5.888 4.731s2.211 4.595 2.211 7.136c-0.004 3.405-1.387 6.67-3.847 9.078s-5.795 3.762-9.273 3.766zM26.645 6.712c-0.26-0.276-0.531-0.541-0.813-0.796l1.673-1.638 0.813 0.795-1.673 1.638zM31.335 5.009l-0.91 0.891-3.765-3.685 0.911-0.89c0.292-0.285 0.688-0.445 1.1-0.445s0.808 0.16 1.1 0.445l1.563 1.53c0.291 0.286 0.455 0.673 0.455 1.077s-0.164 0.791-0.455 1.077h0.001z"></path>
</symbol>
</defs>
</svg>
