<svg width="545" height="354" xmlns="http://www.w3.org/2000/svg">
 <g id="Layer_1">
  <title>Layer 1</title>
  <path id="svg_1" d="m292.3,85.16968c104.10453,-209.09024 511.98947,0 0,268.8303c-511.98947,-268.8303 -104.10453,-477.92054 0,-268.8303z" stroke="#000" fill="#fff"/>
  <path id="svg_2" d="m292.13501,101.03272c90.49879,-177.19513 445.07602,0 0,227.82231c-445.07602,-227.82231 -90.49879,-405.01744 0,-227.82231z" stroke="#000" fill="#fff"/>
  <path id="svg_3" d="m291.95498,123.54269c75.65616,-132.30568 372.07948,0 0,170.10731c-367.07948,-189.10731 -75.65616,-302.41299 0,-170.10731z" stroke="#000" fill="#fff"/>
  <path id="svg_4" d="m0.5,285.92142c0.20615,-0.875 1.01384,0 0,1.125c-1.01384,-1.125 -0.20615,-2 0,-1.125z" stroke="#000" fill="#fff"/>
  <ellipse ry="59.5" rx="65.5" id="svg_5" cy="209.08142" cx="292.98976" stroke="#000" fill="#fff"/>
 </g>

</svg>