<svg width="520" height="658" xmlns="http://www.w3.org/2000/svg">

  <path id="svg_5" fill="#9ACEE6" stroke="#000" stroke-width="6" d="m274.19,85.57502c56.15883,0 101.71808,44.37495 101.71808,99.02132c0,54.6464 -45.55925,98.97865 -101.71808,98.97865c-56.15885,0 -101.71811,44.37499 -101.71811,99.02135c0,54.64639 45.55925,98.97865 101.71811,98.97865c112.31765,0 203.48001,-88.70727 203.48001,-198.00001c0,-109.29276 -91.16236,-197.99997 -203.48001,-197.99997l0,0.00001zm0,68.07716c-17.55867,0 -31.80063,13.85835 -31.80063,30.94416c0,17.08583 14.24193,30.94416 31.80063,30.94416c17.55869,0 31.80059,-13.85835 31.80059,-30.94416c0,-17.08581 -14.2419,-30.94416 -31.80059,-30.94416zm0,198.00001c17.5496,0 31.80059,13.86716 31.80059,30.94416c0,17.07696 -14.25097,30.94419 -31.80059,30.94419c-17.54963,0 -31.80063,-13.86721 -31.80063,-30.94419c0,-17.07696 14.251,-30.94416 31.80063,-30.94416zm198.9161,-67.95104c0,109.21155 -90.98377,197.74501 -203.21804,197.74501c-112.23422,0 -203.21804,-88.53346 -203.21804,-197.74501c0,-109.21159 90.98382,-197.74508 203.21804,-197.74508c112.23428,0 203.21804,88.53349 203.21804,197.74508z" />


</svg>