<svg aria-hidden="true" style="position:absolute;width:0;height:0;overflow:hidden" xmlns="http://www.w3.org/2000/svg"><defs><symbol id="icon-star" viewBox="0 0 25 32"><path fill="#fff" style="fill:var(--color1, #fff)" d="M2.026 12.884h8.081l2.497-8.378 2.497 8.378h8.081l-6.537 5.178 2.497 8.378-6.537-5.178-6.537 5.178 2.497-8.378-6.537-5.178z"/><path fill="#fff" style="fill:var(--color1, #fff)" d="M4.21 13.557h6.464l1.998-6.78 1.998 6.78h6.464l-5.23 4.19 1.998 6.78-5.23-4.19-5.23 4.19 1.998-6.78-5.23-4.19z"/><path fill="#fff" style="fill:var(--color1, #fff)" d="M5.807 13.998h5.22l1.613-5.48 1.613 5.48h5.22l-4.223 3.387 1.613 5.48-4.223-3.387-4.223 3.387 1.613-5.48-4.223-3.387z"/><path fill="#fff" style="fill:var(--color1, #fff)" d="M7.501 14.54h3.938l1.217-4.328 1.217 4.328h3.938l-3.186 2.675 1.217 4.328-3.186-2.675-3.186 2.675 1.217-4.328-3.186-2.675z"/><path fill="#fff" style="fill:var(--color1, #fff)" d="M8.613 14.776h3.084l.953-3.548.953 3.548h3.084l-2.495 2.193.953 3.548-2.495-2.193-2.495 2.193.953-3.548-2.495-2.193z"/><path fill="#fff" style="fill:var(--color1, #fff)" d="M10.114 15.277h1.969l.608-2.452.608 2.452h1.969l-1.593 1.515.608 2.452-1.593-1.515-1.593 1.515.608-2.452-1.593-1.515z"/></symbol><symbol id="icon-heart" viewBox="0 0 49 32"><path  d="M26.423 7.699c9.411-18.901 46.282 0 0 24.301-46.282-24.301-9.411-43.202 0-24.301z"/><path  d="M26.408 9.133c8.181-16.018 40.233 0 0 20.594-40.233-20.594-8.181-36.612 0-20.594z"/><path fill="#cecece" d="M26.391 11.168c6.839-11.96 33.634 0 0 15.377-33.182-17.094-6.839-27.337 0-15.377zM.045 25.846c.019-.079.092 0 0 .102-.092-.102-.019-.181 0-.102z"/><path fill="#fff" style="fill:var(--color1, #fff)" d="M32.406 18.9c0 2.97-2.651 5.379-5.921 5.379s-5.921-2.408-5.921-5.379c0-2.97 2.651-5.379 5.921-5.379s5.921 2.408 5.921 5.379z"/></symbol><symbol id="icon-hard" viewBox="0 0 49 32"><path fill="#fff" style="fill:var(--color1, #fff)" d="M26.423 7.699c9.411-18.901 46.282 0 0 24.301-46.282-24.301-9.411-43.202 0-24.301z"/><path fill="#fff" style="fill:var(--color1, #fff)" d="M26.408 9.133c8.181-16.018 40.233 0 0 20.594-40.233-20.594-8.181-36.612 0-20.594z"/><path fill="#fff" style="fill:var(--color1, #fff)" d="M26.391 11.168c6.839-11.96 33.634 0 0 15.377-33.182-17.094-6.839-27.337 0-15.377zM.045 25.846c.019-.079.092 0 0 .102-.092-.102-.019-.181 0-.102z"/><path fill="#fff" style="fill:var(--color1, #fff)" d="M32.406 18.9c0 2.97-2.651 5.379-5.921 5.379s-5.921-2.408-5.921-5.379c0-2.97 2.651-5.379 5.921-5.379s5.921 2.408 5.921 5.379z"/></symbol><symbol id="icon-inayn" viewBox="0 0 25 32"><path fill="#9acee6" style="fill:var(--color2, #9acee6)" stroke-width=".292" stroke="#000" d="M13.334 4.162c2.731 0 4.947 2.158 4.947 4.816s-2.216 4.814-4.947 4.814-4.947 2.158-4.947 4.816 2.216 4.814 4.947 4.814c5.462 0 9.896-4.314 9.896-9.629s-4.433-9.629-9.896-9.629zm0 3.31c-.854 0-1.547.674-1.547 1.505s.693 1.505 1.547 1.505 1.547-.674 1.547-1.505-.693-1.505-1.547-1.505zm0 9.63c.853 0 1.547.674 1.547 1.505s-.693 1.505-1.547 1.505c-.853 0-1.547-.674-1.547-1.505s.693-1.505 1.547-1.505zm9.674-3.305c0 5.311-4.425 9.617-9.883 9.617s-9.883-4.306-9.883-9.617c0-5.311 4.425-9.617 9.883-9.617s9.883 4.306 9.883 9.617z"/></symbol></defs></svg>